<svg width="76" height="76" viewBox="0 0 76 76" fill="none" xmlns="http://www.w3.org/2000/svg">
<path d="M39.0341 2.88524C38.5095 2.89121 37.9851 2.90977 37.4614 2.9409C43.0168 3.81817 48.4636 6.41775 52.6299 10.307C44.3527 6.42918 33.4132 6.2616 24.8907 9.78743C26.4299 8.34314 28.1232 7.18829 29.919 6.32246C7.23846 11.8838 -0.956475 29.2593 8.41884 51.0532C5.97704 47.078 4.09842 42.8019 3.1306 38.4823C2.35427 49.4749 7.88357 58.5143 18.341 67.7848C18.35 67.7942 18.3592 67.8035 18.3686 67.8127C20.1657 69.6125 21.9664 71.085 23.2485 71.8249C32.8358 77.3605 41.2606 62.4192 31.8252 56.972C30.1234 55.9893 26.8499 54.8615 23.4296 54.1702C12.0508 48.7827 9.48981 31.0309 20.419 18.4433C19.4313 20.94 18.698 23.6142 18.2156 26.3661C29.528 6.32854 64.5726 7.19928 66.3277 37.063C64.7362 27.916 58.3554 20.1653 48.3623 16.9728C56.7772 20.5267 62.6539 28.811 62.6539 38.5334C62.6539 52.5239 51.8438 60.562 39.7063 63.1183C46.0271 63.4657 53.761 61.0661 58.326 57.728C54.859 63.6031 47.6169 67.6855 40.0311 69.8396C50.8279 69.4234 60.2951 63.732 66.068 55.3855C64.5367 57.1151 62.6957 58.6571 60.6084 59.9826C67.5167 51.7789 71.1171 39.5027 69.7091 28.7736C70.9602 31.1908 71.7254 33.7478 72.0518 36.3995C72.0302 14.4919 55.2865 2.71646 39.0341 2.88524Z" fill="white"/>
</svg>
